<?xml version="1.0" encoding="UTF-8" standalone="no"?>
<!-- Created with Inkscape (http://www.inkscape.org/) -->

<svg
   width="48mm"
   height="48mm"
   viewBox="0 0 48 48"
   version="1.1"
   id="svg1"
   inkscape:version="1.4 (86a8ad7, 2024-10-11)"
   sodipodi:docname="gear.svg"
   xmlns:inkscape="http://www.inkscape.org/namespaces/inkscape"
   xmlns:sodipodi="http://sodipodi.sourceforge.net/DTD/sodipodi-0.dtd"
   xmlns="http://www.w3.org/2000/svg"
   xmlns:svg="http://www.w3.org/2000/svg">
  <sodipodi:namedview
     id="namedview1"
     pagecolor="#ffffff"
     bordercolor="#000000"
     borderopacity="0.25"
     inkscape:showpageshadow="2"
     inkscape:pageopacity="0.0"
     inkscape:pagecheckerboard="true"
     inkscape:deskcolor="#d1d1d1"
     inkscape:document-units="mm"
     inkscape:zoom="3.9552165"
     inkscape:cx="30.466095"
     inkscape:cy="117.43984"
     inkscape:window-width="2560"
     inkscape:window-height="1511"
     inkscape:window-x="-9"
     inkscape:window-y="-9"
     inkscape:window-maximized="1"
     inkscape:current-layer="layer1"
     showgrid="false" />
  <defs
     id="defs1" />
  <g
     inkscape:label="Layer 1"
     inkscape:groupmode="layer"
     id="layer1">
    <path
       id="path2"
       style="fill:#ffffff;fill-opacity:1;stroke:#ffffff;stroke-width:2;stroke-linecap:round;stroke-linejoin:round;stroke-dasharray:none;stroke-opacity:1"
       d="M 27,2 H 21 L 20,7 15.5,9.5 10,6 l -4,4 4,5 -1,5 -7,1 v 6 l 7,1 1,5 -4,5 4,4 6.594274,-3.5 L 20,41 l 1,5 h 6 l 1,-5 4.5,-2.5 5.5,3.5 4,-4 -4,-5 1,-5 7,-1 V 21 L 39,20 38,15 42,10 38,6 32.5,9.5 28,7 Z m -3,31 c -7.083503,0.114197 -11.158989,-7.289233 -8,-13 3.158989,-5.710767 12.440627,-5.830702 16,0 3.559373,5.830702 -0.916497,12.885803 -8,13 z"
       sodipodi:nodetypes="ccccccccccccccccccccccccccccccccczzzz" />
  </g>
</svg>
